<svg xmlns="http://www.w3.org/2000/svg" xmlns:rdkit="http://www.rdkit.org/xml" xmlns:xlink="http://www.w3.org/1999/xlink" version="1.1" baseProfile="full" xml:space="preserve" width="1200px" height="200px" viewBox="0 0 1200 200">
<!-- END OF HEADER -->
<rect style="opacity:1.0;fill:#FFFFFF;stroke:none" width="1200.0" height="200.0" x="0.0" y="0.0"> </rect>
<path class="bond-0 atom-0 atom-1" d="M 160.3,103.1 L 143.7,96.4" style="fill:none;fill-rule:evenodd;stroke:#0000FF;stroke-width:2.0px;stroke-linecap:butt;stroke-linejoin:miter;stroke-opacity:1"/>
<path class="bond-0 atom-0 atom-1" d="M 143.7,96.4 L 127.0,89.7" style="fill:none;fill-rule:evenodd;stroke:#000000;stroke-width:2.0px;stroke-linecap:butt;stroke-linejoin:miter;stroke-opacity:1"/>
<path class="bond-1 atom-1 atom-2" d="M 127.0,89.7 L 93.8,115.7" style="fill:none;fill-rule:evenodd;stroke:#000000;stroke-width:2.0px;stroke-linecap:butt;stroke-linejoin:miter;stroke-opacity:1"/>
<path class="bond-2 atom-2 atom-3" d="M 93.8,115.7 L 76.8,108.8" style="fill:none;fill-rule:evenodd;stroke:#000000;stroke-width:2.0px;stroke-linecap:butt;stroke-linejoin:miter;stroke-opacity:1"/>
<path class="bond-2 atom-2 atom-3" d="M 76.8,108.8 L 59.9,102.0" style="fill:none;fill-rule:evenodd;stroke:#FF7F00;stroke-width:2.0px;stroke-linecap:butt;stroke-linejoin:miter;stroke-opacity:1"/>
<path class="bond-3 atom-3 atom-4" d="M 50.6,94.9 L 37.1,89.4" style="fill:none;fill-rule:evenodd;stroke:#FF7F00;stroke-width:2.0px;stroke-linecap:butt;stroke-linejoin:miter;stroke-opacity:1"/>
<path class="bond-3 atom-3 atom-4" d="M 37.1,89.4 L 23.6,84.0" style="fill:none;fill-rule:evenodd;stroke:#FF0000;stroke-width:2.0px;stroke-linecap:butt;stroke-linejoin:miter;stroke-opacity:1"/>
<path class="bond-3 atom-3 atom-4" d="M 48.2,100.7 L 34.7,95.3" style="fill:none;fill-rule:evenodd;stroke:#FF7F00;stroke-width:2.0px;stroke-linecap:butt;stroke-linejoin:miter;stroke-opacity:1"/>
<path class="bond-3 atom-3 atom-4" d="M 34.7,95.3 L 21.2,89.8" style="fill:none;fill-rule:evenodd;stroke:#FF0000;stroke-width:2.0px;stroke-linecap:butt;stroke-linejoin:miter;stroke-opacity:1"/>
<path class="bond-4 atom-3 atom-5" d="M 51.7,107.3 L 46.8,119.5" style="fill:none;fill-rule:evenodd;stroke:#FF7F00;stroke-width:2.0px;stroke-linecap:butt;stroke-linejoin:miter;stroke-opacity:1"/>
<path class="bond-4 atom-3 atom-5" d="M 46.8,119.5 L 41.9,131.6" style="fill:none;fill-rule:evenodd;stroke:#FF0000;stroke-width:2.0px;stroke-linecap:butt;stroke-linejoin:miter;stroke-opacity:1"/>
<path class="bond-5 atom-3 atom-6" d="M 57.6,92.5 L 62.5,80.5" style="fill:none;fill-rule:evenodd;stroke:#FF7F00;stroke-width:2.0px;stroke-linecap:butt;stroke-linejoin:miter;stroke-opacity:1"/>
<path class="bond-5 atom-3 atom-6" d="M 62.5,80.5 L 67.3,68.4" style="fill:none;fill-rule:evenodd;stroke:#FF0000;stroke-width:2.0px;stroke-linecap:butt;stroke-linejoin:miter;stroke-opacity:1"/>
<path d="M 127.9,90.0 L 127.0,89.7 L 125.4,91.0" style="fill:none;stroke:#000000;stroke-width:2.0px;stroke-linecap:butt;stroke-linejoin:miter;stroke-opacity:1;"/>
<path d="M 95.5,114.4 L 93.8,115.7 L 92.9,115.3" style="fill:none;stroke:#000000;stroke-width:2.0px;stroke-linecap:butt;stroke-linejoin:miter;stroke-opacity:1;"/>
<path class="atom-0" d="M 163.6 99.5 L 167.5 105.8 Q 167.9 106.4, 168.5 107.6 Q 169.1 108.7, 169.1 108.8 L 169.1 99.5 L 170.7 99.5 L 170.7 111.4 L 169.1 111.4 L 164.9 104.5 Q 164.4 103.7, 163.9 102.8 Q 163.4 101.8, 163.2 101.5 L 163.2 111.4 L 161.7 111.4 L 161.7 99.5 L 163.6 99.5 " fill="#0000FF"/>
<path class="atom-0" d="M 173.0 99.5 L 174.6 99.5 L 174.6 104.6 L 180.7 104.6 L 180.7 99.5 L 182.4 99.5 L 182.4 111.4 L 180.7 111.4 L 180.7 105.9 L 174.6 105.9 L 174.6 111.4 L 173.0 111.4 L 173.0 99.5 " fill="#0000FF"/>
<path class="atom-0" d="M 184.7 111.0 Q 185.0 110.3, 185.7 109.8 Q 186.4 109.4, 187.3 109.4 Q 188.5 109.4, 189.2 110.1 Q 189.9 110.7, 189.9 111.9 Q 189.9 113.0, 189.0 114.1 Q 188.1 115.2, 186.4 116.5 L 190.0 116.5 L 190.0 117.4 L 184.7 117.4 L 184.7 116.7 Q 186.2 115.6, 187.0 114.8 Q 187.9 114.0, 188.3 113.3 Q 188.8 112.6, 188.8 111.9 Q 188.8 111.2, 188.4 110.7 Q 188.0 110.3, 187.3 110.3 Q 186.7 110.3, 186.3 110.6 Q 185.9 110.8, 185.6 111.4 L 184.7 111.0 " fill="#0000FF"/>
<path class="atom-3" d="M 54.4 93.9 Q 56.4 93.9, 57.4 94.9 Q 58.5 95.8, 58.5 97.4 Q 58.5 99.1, 57.4 100.0 Q 56.3 101.0, 54.4 101.0 L 52.4 101.0 L 52.4 105.9 L 50.8 105.9 L 50.8 93.9 L 54.4 93.9 M 54.4 99.6 Q 55.5 99.6, 56.1 99.1 Q 56.8 98.5, 56.8 97.4 Q 56.8 96.4, 56.1 95.8 Q 55.5 95.3, 54.4 95.3 L 52.4 95.3 L 52.4 99.6 L 54.4 99.6 " fill="#FF7F00"/>
<path class="atom-4" d="M 10.0 84.2 Q 10.0 81.3, 11.4 79.7 Q 12.8 78.1, 15.5 78.1 Q 18.1 78.1, 19.6 79.7 Q 21.0 81.3, 21.0 84.2 Q 21.0 87.1, 19.5 88.7 Q 18.1 90.4, 15.5 90.4 Q 12.9 90.4, 11.4 88.7 Q 10.0 87.1, 10.0 84.2 M 15.5 89.0 Q 17.3 89.0, 18.3 87.8 Q 19.3 86.6, 19.3 84.2 Q 19.3 81.8, 18.3 80.6 Q 17.3 79.4, 15.5 79.4 Q 13.7 79.4, 12.7 80.6 Q 11.7 81.8, 11.7 84.2 Q 11.7 86.6, 12.7 87.8 Q 13.7 89.0, 15.5 89.0 " fill="#FF0000"/>
<path class="atom-5" d="M 21.6 133.2 L 23.2 133.2 L 23.2 138.2 L 29.3 138.2 L 29.3 133.2 L 30.9 133.2 L 30.9 145.1 L 29.3 145.1 L 29.3 139.6 L 23.2 139.6 L 23.2 145.1 L 21.6 145.1 L 21.6 133.2 " fill="#FF0000"/>
<path class="atom-5" d="M 33.4 139.1 Q 33.4 136.2, 34.8 134.6 Q 36.2 133.0, 38.9 133.0 Q 41.5 133.0, 42.9 134.6 Q 44.4 136.2, 44.4 139.1 Q 44.4 142.0, 42.9 143.7 Q 41.5 145.3, 38.9 145.3 Q 36.2 145.3, 34.8 143.7 Q 33.4 142.0, 33.4 139.1 M 38.9 143.9 Q 40.7 143.9, 41.7 142.7 Q 42.7 141.5, 42.7 139.1 Q 42.7 136.7, 41.7 135.6 Q 40.7 134.4, 38.9 134.4 Q 37.0 134.4, 36.0 135.5 Q 35.1 136.7, 35.1 139.1 Q 35.1 141.5, 36.0 142.7 Q 37.0 143.9, 38.9 143.9 " fill="#FF0000"/>
<path class="atom-6" d="M 64.9 60.8 Q 64.9 57.9, 66.4 56.3 Q 67.8 54.7, 70.4 54.7 Q 73.1 54.7, 74.5 56.3 Q 75.9 57.9, 75.9 60.8 Q 75.9 63.7, 74.5 65.3 Q 73.0 67.0, 70.4 67.0 Q 67.8 67.0, 66.4 65.3 Q 64.9 63.7, 64.9 60.8 M 70.4 65.6 Q 72.2 65.6, 73.2 64.4 Q 74.2 63.2, 74.2 60.8 Q 74.2 58.4, 73.2 57.3 Q 72.2 56.1, 70.4 56.1 Q 68.6 56.1, 67.6 57.2 Q 66.6 58.4, 66.6 60.8 Q 66.6 63.2, 67.6 64.4 Q 68.6 65.6, 70.4 65.6 " fill="#FF0000"/>
<path class="atom-6" d="M 77.8 54.8 L 79.4 54.8 L 79.4 59.9 L 85.5 59.9 L 85.5 54.8 L 87.1 54.8 L 87.1 66.8 L 85.5 66.8 L 85.5 61.3 L 79.4 61.3 L 79.4 66.8 L 77.8 66.8 L 77.8 54.8 " fill="#FF0000"/>
</svg>